<svg xmlns="http://www.w3.org/2000/svg" width="16" height="16" viewBox="0 0 64 64">
    <path
        d="M49.6 54H14.4C12 54 10 52 10 49.6V17.3c0-2.4 1.6-4.4 3.7-4.4h2.2v2.9h-2.2c-.3 0-.7.6-.7 1.5v32.3c0 .8.7 1.5 1.5 1.5h35.2c.8 0 1.5-.7 1.5-1.5V17.3c0-.9-.5-1.5-.7-1.5h-2.2v-2.9h2.2c2 0 3.7 2 3.7 4.4v32.3C54 52 52 54 49.6 54"
    />
    <path
        d="M20.3 18.8c-.8 0-1.5-.7-1.5-1.5v-5.9c0-.8.7-1.5 1.5-1.5s1.5.7 1.5 1.5v5.9c-.1.8-.7 1.5-1.5 1.5m23.4 0c-.8 0-1.5-.7-1.5-1.5v-5.9c0-.8.7-1.5 1.5-1.5s1.5.7 1.5 1.5v5.9c0 .8-.7 1.5-1.5 1.5m-19-5.9h14.6v3H24.7zm-11.8 8.8h38.2v3H12.9zm32.3 5.9h2.9v2.9h-2.9zm-5.9 0h3v2.9h-3zm-5.8 0h2.9v2.9h-2.9zm-5.9 0h2.9v2.9h-2.9zm-5.9 0h3v2.9h-3zm23.5 5.9h2.9v2.9h-2.9zm-5.9 0h3v2.9h-3zm-5.8 0h2.9v2.9h-2.9zm-5.9 0h2.9v2.9h-2.9zm-5.9 0h3v2.9h-3zm-5.8 0h2.9v2.9h-2.9zm29.3 5.8h2.9v3h-2.9zm-5.9 0h3v3h-3zm-5.8 0h2.9v3h-2.9zm-5.9 0h2.9v3h-2.9zm-5.9 0h3v3h-3zm-5.8 0h2.9v3h-2.9zm23.4 5.9h3v2.9h-3zm-5.8 0h2.9v2.9h-2.9zm-5.9 0h2.9v2.9h-2.9zm-5.9 0h3v2.9h-3zm-5.8 0h2.9v2.9h-2.9z"
    />
</svg>